<?xml version="1.0" standalone="no"?>
<!DOCTYPE svg PUBLIC "-//W3C//DTD SVG 20010904//EN"
 "http://www.w3.org/TR/2001/REC-SVG-20010904/DTD/svg10.dtd">
<svg version="1.0" xmlns="http://www.w3.org/2000/svg"
 width="700.000000pt" height="700.000000pt" viewBox="0 0 700.000000 700.000000"
 preserveAspectRatio="xMidYMid meet">
<metadata>
Created by potrace 1.11, written by Peter Selinger 2001-2013
</metadata>
<g transform="translate(0.000000,700.000000) scale(0.100000,-0.100000)"
fill="#000000" stroke="none">
<path d="M3108 6559 c-58 -9 -67 -14 -79 -47 -14 -35 -12 -179 2 -272 62 -411
51 -598 -71 -1213 -28 -136 -50 -258 -50 -269 0 -29 -10 -17 -16 18 -9 52 -45
218 -60 279 -9 33 -17 67 -19 75 -21 105 -131 435 -217 653 -103 260 -131 280
-252 187 -101 -78 -243 -140 -318 -140 -10 0 -18 -3 -18 -6 0 -3 25 -48 56
-100 167 -284 372 -752 488 -1114 20 -63 43 -135 51 -160 50 -154 126 -484
163 -705 50 -296 21 -650 -88 -1086 -51 -200 -172 -552 -252 -729 -101 -224
-85 -204 -173 -215 -30 -4 -70 -20 -100 -39 -27 -17 -63 -38 -79 -46 -16 -8
-45 -34 -65 -58 -73 -87 -86 -215 -32 -323 l29 -58 -22 -19 c-33 -30 -87 -59
-134 -73 -30 -9 -41 -17 -37 -27 3 -7 5 -17 5 -22 0 -14 83 18 144 55 64 39
62 24 -7 -44 -42 -41 -52 -71 -23 -71 7 0 32 20 56 45 l44 45 24 -47 c48 -93
185 -203 284 -227 l27 -6 -29 -49 c-34 -59 -82 -189 -74 -202 3 -5 18 -9 35
-9 22 0 29 5 29 19 0 28 37 117 73 176 11 18 16 22 13 10 -18 -66 -24 -203
-12 -272 7 -41 8 -41 37 -31 21 7 28 15 24 26 -7 18 -7 164 0 211 2 19 9 48
15 66 10 31 11 31 78 32 99 2 172 15 256 46 73 27 154 102 185 171 45 103 53
166 55 438 2 142 5 259 7 261 2 1 42 36 89 78 47 41 139 120 205 174 131 108
343 312 389 375 41 55 170 181 236 231 75 57 164 96 370 163 324 105 472 167
547 229 48 41 68 50 174 81 76 23 116 46 118 69 5 34 -107 163 -176 204 -36
21 -51 24 -90 18 -79 -10 -114 -23 -195 -69 -71 -40 -243 -126 -255 -126 -2 0
-25 -10 -51 -21 -25 -12 -51 -22 -57 -24 -9 -2 -38 -13 -60 -23 -22 -10 265
268 330 320 149 117 235 166 343 194 75 20 118 54 148 121 l25 54 -27 46 c-58
99 -159 182 -206 168 -56 -17 -314 -186 -470 -308 -122 -95 -215 -175 -347
-302 l-41 -39 39 94 c59 140 104 270 144 410 67 233 67 234 -118 244 -117 6
-128 5 -155 -14 -30 -22 -45 -56 -55 -130 -4 -25 -11 -67 -16 -95 -6 -27 -12
-61 -15 -75 -21 -107 -127 -484 -154 -545 -5 -11 -23 -58 -40 -105 -59 -158
-182 -423 -251 -540 -22 -37 -71 -100 -129 -165 -44 -49 -209 -209 -220 -213
-4 -2 -4 14 0 35 5 21 11 58 15 83 3 25 8 52 10 60 2 8 7 29 9 45 8 42 40 189
71 325 15 63 28 122 30 130 2 8 10 45 19 81 18 79 19 82 50 264 26 147 32 197
41 333 11 175 17 247 20 252 1 3 6 36 10 75 4 38 8 72 10 76 2 3 6 19 9 35 13
69 19 93 43 164 41 123 79 187 364 600 55 80 105 155 112 167 6 12 31 53 53
90 135 223 176 336 176 488 0 177 -101 327 -239 355 -87 19 -156 -5 -198 -68
-13 -20 -58 -122 -99 -226 -42 -104 -78 -191 -81 -195 -6 -5 -2 36 10 134 28
219 26 928 -4 983 -39 73 -252 125 -413 101z"/>
</g>
</svg>
